<?xml version="1.0" standalone="no"?><!DOCTYPE svg PUBLIC "-//W3C//DTD SVG 1.1//EN" "http://www.w3.org/Graphics/SVG/1.1/DTD/svg11.dtd"><svg t="1576323716729" class="icon" viewBox="0 0 1024 1024" version="1.1" xmlns="http://www.w3.org/2000/svg" p-id="3060" xmlns:xlink="http://www.w3.org/1999/xlink" width="200" height="200"><defs><style type="text/css"></style></defs><path d="M1024.512 498.688c0-1.536 0-3.072-0.512-5.12-1.024-6.144-4.608-11.776-9.216-15.36l-258.048-258.048c-10.24-10.24-26.112-10.24-36.352 0s-10.24 26.112 0 36.352l216.576 216.576h-912.384c-13.312 0-24.576 11.264-24.576 25.6s10.752 25.6 24.576 25.6h912.384l-216.576 216.576c-10.24 10.24-10.24 26.112 0 36.352 5.12 5.12 11.776 7.68 17.92 7.68s13.312-2.56 17.92-7.68L1014.272 519.168c4.608-3.584 8.192-9.216 9.216-15.36 1.024-2.048 1.024-3.584 1.024-5.12z" p-id="3061"></path></svg>